<svg xmlns="http://www.w3.org/2000/svg" width="122.431" height="39.635" viewBox="0 0 122.431 39.635">
  <g id="Group_1646" data-name="Group 1646" transform="translate(-4758.519 198)">
    <path id="Path_1" data-name="Path 1" d="M452.36,297.448a7.563,7.563,0,0,0,.542-.542,3.488,3.488,0,0,0,.432-.608,3.044,3.044,0,0,0,.285-.732,3.666,3.666,0,0,0,.1-.9,3.372,3.372,0,0,0-.256-1.362,2.685,2.685,0,0,0-.711-.974,3.074,3.074,0,0,0-1.069-.586,4.283,4.283,0,0,0-1.319-.2,4.831,4.831,0,0,0-1.413.2,3.281,3.281,0,0,0-1.136.594,2.928,2.928,0,0,0-.776.989,3.572,3.572,0,0,0-.337,1.4l2.2.161a1.542,1.542,0,0,1,.389-.937,1.228,1.228,0,0,1,.959-.381,1.4,1.4,0,0,1,.894.3,1,1,0,0,1,.381.828,1.207,1.207,0,0,1-.307.82,7.668,7.668,0,0,1-.615.629l-4.029,3.619v2.329h7.237v-1.934h-4.6Z" transform="translate(4395.829 -460.632)" fill="#804896"/>
    <path id="Path_2" data-name="Path 2" d="M477.634,297.565a2.208,2.208,0,0,0-.609-.541,2.019,2.019,0,0,0-.827-.278V296.7a2.082,2.082,0,0,0,1.319-.791,2.418,2.418,0,0,0,.453-1.48,2.726,2.726,0,0,0-.285-1.29,2.632,2.632,0,0,0-.769-.9,3.293,3.293,0,0,0-1.121-.527,5.187,5.187,0,0,0-1.326-.168,5.472,5.472,0,0,0-1.253.139,3.7,3.7,0,0,0-1.076.433,2.9,2.9,0,0,0-.835.768,3.332,3.332,0,0,0-.527,1.15l2.416.5a1.268,1.268,0,0,1,.44-.689,1.287,1.287,0,0,1,.849-.279,1.4,1.4,0,0,1,.915.307.964.964,0,0,1,.373.777,1.09,1.09,0,0,1-.146.594,1,1,0,0,1-.389.351,1.7,1.7,0,0,1-.535.169,4.02,4.02,0,0,1-.6.043h-.717v1.905h.512c.245,0,.488.008.733.022a2.09,2.09,0,0,1,.659.139,1,1,0,0,1,.659,1.04,1.363,1.363,0,0,1-.343.959,1.383,1.383,0,0,1-1.063.373,1.545,1.545,0,0,1-1.062-.323,1.576,1.576,0,0,1-.476-.878l-2.314.542a3.136,3.136,0,0,0,1.326,2.036,4.333,4.333,0,0,0,2.4.643,5.332,5.332,0,0,0,1.443-.19,3.451,3.451,0,0,0,1.187-.578,2.856,2.856,0,0,0,.806-.975,2.953,2.953,0,0,0,.3-1.362,2.805,2.805,0,0,0-.131-.864,2.4,2.4,0,0,0-.381-.733" transform="translate(4391.265 -460.632)" fill="#804896"/>
    <path id="Path_3" data-name="Path 3" d="M462.153,291.544a4.717,4.717,0,1,0,4.717,4.717,4.717,4.717,0,0,0-4.717-4.717m0,7.23a2.512,2.512,0,1,1,2.512-2.512,2.513,2.513,0,0,1-2.512,2.512" transform="translate(4393.785 -460.632)" fill="#804896"/>
    <path id="Path_4" data-name="Path 4" d="M487.136,291.544a4.717,4.717,0,1,0,4.717,4.717,4.717,4.717,0,0,0-4.717-4.717m0,7.23a2.512,2.512,0,1,1,2.512-2.512,2.513,2.513,0,0,1-2.512,2.512" transform="translate(4389.097 -460.632)" fill="#804896"/>
    <path id="Path_5" data-name="Path 5" d="M393.985,259.491H389.52v17.656l4.465-4.465Z" transform="translate(4406.535 -454.58)" fill="#804896"/>
    <path id="Path_6" data-name="Path 6" d="M359.63,265.868l-3.679,6.3a8.361,8.361,0,0,1-7.165,4.073h-5.465V280.7h5.465a12.842,12.842,0,0,0,11.006-6.261l3.693-6.322c1.546-2.644,3.647-4.162,5.767-4.162h6.916v-4.464h-6.916c-3.749,0-7.257,2.322-9.621,6.374" transform="translate(4415.198 -454.581)" fill="#804896"/>
    <path id="Path_7" data-name="Path 7" d="M403.546,259.491l-18.263,18.262,3.156,3.158,7.553-7.553,7.553,7.553,3.155-3.158-7.552-7.552,7.553-7.553Z" transform="translate(4407.31 -454.58)" fill="#804896"/>
    <path id="Path_8" data-name="Path 8" d="M425.538,259.493A10.61,10.61,0,1,0,436.469,270.1a10.784,10.784,0,0,0-10.932-10.606m0,16.745A6.148,6.148,0,1,1,432,270.1a6.317,6.317,0,0,1-6.466,6.138" transform="translate(4401.797 -454.581)" fill="#804896"/>
    <path id="Path_9" data-name="Path 9" d="M480.9,271.212a2.812,2.812,0,1,0,2.812,2.813,2.813,2.813,0,0,0-2.812-2.813" transform="translate(4389.898 -456.793)" fill="#804896"/>
    <path id="Path_10" data-name="Path 10" d="M451.04,255.92h-4.465l0,24.122,15.3,0v-4.465l-10.833,0Z" transform="translate(4395.808 -453.92)" fill="#804896"/>
    <path id="Path_11" data-name="Path 11" d="M479.231,257.985a10.168,10.168,0,0,0-10.156,10.156v6.252h4.466v-6.252a5.69,5.69,0,0,1,11.381,0v12.282h4.466V268.141a10.168,10.168,0,0,0-10.156-10.156" transform="translate(4391.563 -454.302)" fill="#804896"/>
  </g>
</svg>
